<svg viewBox="0 0 128 128" xmlns="http://www.w3.org/2000/svg">
  <path fill="#E0E0E0" d="M112.2 123.7H15.8c-4.4 0-8-3.6-8-8V43.8c0-4.4 3.6-8 8-8h96.4c4.4 0 8 3.6 8 8v71.9c0 4.4-3.6 8-8 8z"/>
  <path fill="#BDBDBD" d="M112.2 44.8H15.8c-4.4 0-8-3.6-8-8s3.6-8 8-8h96.4c4.4 0 8 3.6 8 8s-3.6 8-8 8z"/>
  <path fill="#BDBDBD" d="M21 123.7c-1.1 0-2-.9-2-2V43.8c0-1.1.9-2 2-2s2 .9 2 2v77.9c0 1.1-.9 2-2 2zM107 123.7c-1.1 0-2-.9-2-2V43.8c0-1.1.9-2 2-2s2 .9 2 2v77.9c0 1.1-.9 2-2 2z"/>
  <path fill="#9E9E9E" d="M120.2 40.3c-1.1 0-2-.9-2-2v-4.5c0-3.3-2.7-6-6-6H15.8c-3.3 0-6 2.7-6 6v4.5c0 1.1-.9 2-2 2s-2-.9-2-2v-4.5c0-5.5 4.5-10 10-10h96.4c5.5 0 10 4.5 10 10v4.5c0 1.1-.9 2-2 2z"/>
  <g>
    <path fill="#757575" d="M56.8 81.3c-2.8 0-5-2.2-5-5s2.2-5 5-5 5 2.2 5 5-2.2 5-5 5zm0-8c-1.7 0-3 1.3-3 3s1.3 3 3 3 3-1.3 3-3-1.3-3-3-3zM71.2 81.3c-2.8 0-5-2.2-5-5s2.2-5 5-5 5 2.2 5 5-2.2 5-5 5zm0-8c-1.7 0-3 1.3-3 3s1.3 3 3 3 3-1.3 3-3-1.3-3-3-3z"/>
    <path fill="#757575" d="M79.5 91.8H48.4c-1.1 0-2-.9-2-2s.9-2 2-2h31.1c1.1 0 2 .9 2 2s-.9 2-2 2z"/>
  </g>
</svg>