<?xml version="1.0" standalone="no"?>
<!DOCTYPE svg PUBLIC "-//W3C//DTD SVG 20010904//EN"
 "http://www.w3.org/TR/2001/REC-SVG-20010904/DTD/svg10.dtd">
<svg version="1.0" xmlns="http://www.w3.org/2000/svg"
 width="194.000000pt" height="207.000000pt" viewBox="0 0 194.000000 207.000000"
 preserveAspectRatio="xMidYMid meet">

<g transform="translate(0.000000,207.000000) scale(0.100000,-0.100000)"
fill="#000000" stroke="none">
<path d="M765 1990 c-200 -15 -428 -64 -606 -131 -46 -18 -85 -33 -87 -34 -1
-1 13 -35 32 -77 19 -41 45 -112 57 -159 25 -91 26 -145 19 -589 -3 -187 -2
-212 18 -285 31 -112 75 -196 138 -265 74 -79 146 -125 278 -177 182 -71 232
-100 288 -163 l50 -57 72 71 c66 68 78 75 176 111 250 91 381 187 454 333 75
149 89 277 72 662 -12 264 6 374 85 532 l29 57 -22 12 c-39 21 -220 80 -323
105 -199 48 -502 71 -730 54z m436 -40 c155 -15 303 -46 441 -90 159 -51 154
-48 130 -96 -10 -22 -29 -68 -40 -104 -41 -129 -47 -177 -43 -360 3 -96 5
-254 4 -350 0 -157 -3 -183 -25 -257 -32 -105 -78 -181 -153 -252 -71 -66
-140 -104 -286 -159 -139 -52 -163 -66 -224 -123 l-51 -49 -40 41 c-51 52 -98
79 -219 124 -159 59 -221 93 -301 168 -59 55 -82 86 -114 150 -64 132 -75 210
-65 472 15 380 4 496 -61 655 -18 46 -31 87 -26 91 15 14 226 79 322 99 215
47 521 63 751 40z"/>
<path d="M1257 1795 c-23 -55 -126 -197 -138 -189 -5 3 -9 0 -9 -7 0 -7 -2
-10 -5 -7 -10 10 7 37 19 32 19 -7 58 90 64 156 5 65 -5 59 -37 -22 -33 -82
-47 -89 -43 -23 2 30 -1 62 -6 72 -9 16 -11 14 -17 -12 -16 -75 -58 -194 -71
-199 -8 -3 -14 -12 -14 -20 0 -8 -13 -38 -28 -68 -38 -72 -43 -94 -33 -156 7
-46 6 -53 -15 -73 -13 -12 -45 -28 -71 -35 -45 -12 -46 -13 -14 -13 51 -1 110
20 131 46 13 17 18 40 18 77 0 34 5 62 15 77 10 13 14 34 12 48 -4 19 -3 21 3
8 7 -17 9 -17 21 -3 7 9 10 16 5 16 -5 0 -1 5 9 11 9 5 17 16 17 24 0 8 5 17
11 21 18 11 0 -36 -23 -60 -39 -42 -59 -95 -56 -149 2 -41 -1 -56 -18 -74 -27
-29 -75 -49 -141 -58 -46 -6 -53 -4 -63 15 -14 26 -9 76 7 73 34 -7 74 108 52
148 -6 13 -6 19 0 19 18 0 61 95 50 111 -5 9 -9 9 -9 2 0 -6 -9 -15 -20 -18
-11 -3 -20 -13 -20 -22 0 -14 3 -14 20 2 11 10 20 14 20 8 0 -5 -9 -18 -20
-28 -11 -10 -20 -13 -20 -7 0 17 -51 72 -67 72 -11 0 -14 -7 -9 -25 5 -20 3
-23 -10 -18 -10 3 -14 13 -11 25 6 21 -50 106 -69 107 -13 1 -24 -31 -24 -68
0 -27 -10 -23 -14 6 -2 10 -16 25 -32 33 -16 8 -30 18 -32 22 -4 8 -18 -2 -63
-44 -39 -36 -39 -79 0 -119 34 -33 56 -37 70 -11 9 15 10 14 8 -5 -1 -13 -5
-23 -10 -23 -4 0 -5 -4 -2 -10 3 -5 28 -10 56 -10 35 0 49 -4 49 -14 0 -8 -8
-17 -17 -20 -15 -6 -15 -8 -3 -16 11 -7 8 -10 -15 -11 -17 -1 -23 -3 -12 -6
25 -6 11 -23 -19 -23 -16 0 -24 -5 -22 -12 3 -7 -5 -20 -16 -30 -14 -12 -17
-17 -7 -18 11 0 10 -4 -3 -19 -10 -11 -15 -25 -11 -31 10 -17 -48 -1 -60 17
-56 83 -73 116 -77 156 -4 31 -1 53 8 64 19 26 17 50 -6 56 -25 6 -56 -16 -45
-33 6 -9 4 -11 -4 -6 -10 6 -11 -12 -9 -76 2 -46 7 -88 10 -94 4 -6 17 -37 29
-69 12 -32 31 -73 41 -92 19 -31 23 -33 73 -33 59 0 68 -7 70 -55 l1 -30 -82
1 c-53 1 -88 6 -99 15 -54 45 -57 51 -52 90 6 46 -2 54 -31 33 -23 -16 -25
-47 -4 -95 24 -58 101 -109 198 -130 103 -22 100 -22 123 2 11 12 21 17 21 10
0 -36 151 -59 224 -34 53 18 98 16 135 -4 39 -22 42 -52 6 -45 -27 5 -28 3
-27 -86 1 -53 27 -88 90 -122 63 -34 87 -78 86 -158 0 -34 2 -62 5 -62 3 0 6
-21 7 -47 0 -26 5 -48 11 -50 17 -6 45 28 38 46 -4 9 -6 60 -6 114 1 65 -2 96
-9 92 -5 -3 -10 3 -10 13 0 24 -14 35 -68 52 -23 7 -40 15 -38 18 3 2 19 -1
38 -7 18 -6 59 -16 91 -22 55 -10 59 -13 77 -52 10 -23 23 -53 29 -67 19 -42
61 -95 82 -102 12 -5 18 -4 14 2 -3 6 -1 10 4 10 6 0 11 11 11 25 0 14 -5 25
-11 25 -5 0 -8 4 -5 9 3 5 -8 19 -24 32 -16 13 -30 28 -30 34 0 27 -35 95 -48
95 -12 0 -13 3 -5 11 21 21 3 39 -38 39 -50 0 -59 18 -56 111 1 51 -2 74 -11
77 -6 2 -9 8 -6 13 3 6 0 16 -6 24 -10 12 -9 15 3 15 9 0 23 -10 32 -22 12
-18 17 -20 24 -9 6 9 11 10 15 2 11 -16 46 -13 46 4 0 8 3 14 8 14 4 -1 15 -1
26 0 15 1 16 4 6 16 -11 13 -10 14 2 10 20 -8 47 23 30 34 -9 5 -5 11 13 19
31 14 33 32 3 32 -22 1 -22 1 -3 12 36 20 51 63 18 51 -15 -5 -14 -2 3 16 18
20 20 27 10 55 -24 71 -99 143 -117 115 -5 -8 -9 -9 -10 -4 -1 6 -5 -8 -8 -30
-4 -23 -1 -53 5 -70 7 -16 14 -44 17 -62 3 -17 8 -38 13 -45 4 -7 4 -10 -1 -6
-4 4 -15 -7 -24 -24 -31 -62 -121 -86 -164 -44 -26 27 -73 46 -85 34 -8 -8 -9
-5 -5 11 6 25 10 26 30 6 19 -20 36 -9 30 20 -3 21 -1 22 19 15 31 -12 36 -3
19 36 -14 33 -13 34 6 24 30 -17 41 -3 24 31 -9 16 -12 29 -8 28 4 -1 16 -1
26 0 14 1 16 5 8 18 -6 12 -5 20 7 29 14 10 14 14 3 28 -12 14 -10 16 13 16
28 0 34 18 14 38 -9 9 -4 12 25 12 42 0 44 5 20 33 -10 11 -13 17 -6 14 13 -8
63 11 63 24 0 4 -14 10 -31 14 l-31 7 52 24 c53 25 58 44 12 45 l-27 0 25 17
c37 25 90 78 90 91 0 7 -14 4 -37 -8 -44 -22 -113 -51 -113 -48 0 2 17 21 38
44 39 42 77 135 70 170 -3 14 -8 11 -22 -15 -21 -40 -79 -105 -117 -132 l-27
-20 21 42 c21 45 36 148 21 148 -5 0 -17 -20 -27 -45z m-674 -162 c-7 -2 -19
-2 -25 0 -7 3 -2 5 12 5 14 0 19 -2 13 -5z m607 -78 c0 -8 -4 -15 -10 -15 -5
0 -7 7 -4 15 4 8 8 15 10 15 2 0 4 -7 4 -15z m-513 -49 c-4 -10 -13 -13 -23
-9 -12 4 -15 3 -10 -5 4 -7 2 -12 -4 -12 -7 0 -10 3 -8 8 3 4 11 22 19 40 13
30 15 31 23 13 5 -11 6 -27 3 -35z m344 31 c-10 -9 -11 -8 -5 6 3 10 9 15 12
12 3 -3 0 -11 -7 -18z m190 -37 c-13 -11 -28 -20 -35 -20 -6 0 3 9 19 19 39
25 46 25 16 1z m-598 -15 c-3 -9 -8 -14 -10 -11 -3 3 -2 9 2 15 9 16 15 13 8
-4z m204 -57 c-3 -8 -6 -5 -6 6 -1 11 2 17 5 13 3 -3 4 -12 1 -19z m3 -45 c-1
-24 -2 -26 -11 -10 -5 9 -7 22 -4 27 10 17 15 11 15 -17z m295 -2 c-3 -6 -11
-11 -16 -11 -5 0 -4 6 3 14 14 16 24 13 13 -3z m65 15 c0 -11 -19 -15 -25 -6
-3 5 1 10 9 10 9 0 16 -2 16 -4z m-736 -65 c3 -5 -1 -11 -9 -14 -9 -4 -12 -1
-8 9 6 16 10 17 17 5z m716 -15 c0 -9 -30 -14 -35 -6 -4 6 3 10 14 10 12 0 21
-2 21 -4z m-520 -25 c0 -5 -11 -11 -25 -13 -28 -6 -35 8 -7 15 28 8 32 7 32
-2z m710 5 c0 -3 -4 -8 -10 -11 -5 -3 -10 -1 -10 4 0 6 5 11 10 11 6 0 10 -2
10 -4z m-213 -32 c-3 -3 -12 -4 -19 -1 -8 3 -5 6 6 6 11 1 17 -2 13 -5z m-57
-19 c-14 -17 -30 -20 -30 -4 0 5 4 8 9 4 5 -3 12 -1 16 5 3 5 9 10 12 10 3 0
0 -7 -7 -15z m309 -17 l-1 -33 -8 30 c-4 17 -8 24 -9 16 0 -8 -4 -12 -7 -8 -8
7 4 27 17 27 5 0 8 -15 8 -32z m-274 -16 c-3 -3 -11 0 -18 7 -9 10 -8 11 6 5
10 -3 15 -9 12 -12z m-55 -6 c0 -9 -30 -14 -35 -6 -4 6 3 10 14 10 12 0 21 -2
21 -4z m-60 -26 c0 -5 -5 -10 -11 -10 -5 0 -7 5 -4 10 3 6 8 10 11 10 2 0 4
-4 4 -10z m94 1 c19 -7 19 -8 -1 -13 -14 -4 -24 0 -27 8 -6 15 -1 16 28 5z
m-534 -17 c0 -8 -5 -12 -10 -9 -6 4 -8 11 -5 16 9 14 15 11 15 -7z m471 -6
c11 -21 11 -22 -4 -9 -10 7 -17 17 -17 22 0 15 9 10 21 -13z m-541 -2 c-7 -7
-13 -7 -20 0 -6 6 -3 10 10 10 13 0 16 -4 10 -10z m490 -21 c11 -13 10 -14 -4
-9 -9 3 -16 10 -16 15 0 13 6 11 20 -6z m33 -19 c3 -8 0 -19 -7 -25 -10 -9
-12 -6 -8 14 5 29 8 31 15 11z m367 -31 c0 -5 -5 -3 -10 5 -5 8 -10 20 -10 25
0 6 5 3 10 -5 5 -8 10 -19 10 -25z m-690 -69 c0 -2 -7 -7 -16 -10 -8 -3 -12
-2 -9 4 6 10 25 14 25 6z m-57 -25 c-3 -11 -11 -22 -19 -25 -11 -4 -11 0 2 19
20 30 24 31 17 6z m412 -21 c3 -6 -1 -7 -9 -4 -18 7 -21 14 -7 14 6 0 13 -4
16 -10z m52 -132 c-3 -8 -6 -5 -6 6 -1 11 2 17 5 13 3 -3 4 -12 1 -19z m43
-40 c0 -18 -2 -20 -9 -8 -6 8 -7 18 -5 22 9 14 14 9 14 -14z m56 3 c0 -11 -4
-17 -8 -15 -4 3 -8 0 -8 -7 0 -7 -3 -10 -6 -7 -5 5 12 48 19 48 2 0 3 -9 3
-19z m-126 -14 c0 -7 7 -24 14 -39 8 -16 11 -28 6 -28 -4 0 -15 20 -24 45 -8
25 -11 43 -5 40 5 -4 9 -12 9 -18z m247 -63 c-3 -3 -12 -4 -19 -1 -8 3 -5 6 6
6 11 1 17 -2 13 -5z"/>
<path d="M450 1762 c-26 -12 -39 -28 -50 -59 -8 -23 -12 -45 -9 -47 3 -3 32
-1 65 4 44 7 65 16 82 35 22 26 30 51 12 40 -6 -3 -7 1 -4 9 4 11 -3 19 -21
26 -34 13 -34 13 -75 -8z"/>
<path d="M585 1724 c-21 -33 -16 -36 12 -7 12 12 18 25 14 28 -5 3 -16 -7 -26
-21z"/>
<path d="M850 1611 c0 -7 -5 -9 -12 -5 -7 4 -10 4 -6 -1 4 -4 3 -16 -3 -26 -7
-13 -6 -19 1 -19 12 0 34 50 25 58 -3 3 -5 0 -5 -7z"/>
</g>
</svg>
